<svg xmlns="http://www.w3.org/2000/svg" width="697.4" height="182" viewBox="0 0 697.4 182">
  <g id="Group_2" data-name="Group 2" transform="translate(-191.2 -283)">
    <path id="Path_2" data-name="Path 2" d="M15.2,0V-140h23V0Zm89,0V-140h23V0ZM31-62V-83h78.2v21ZM178,2a43.134,43.134,0,0,1-21.7-5.4,38.307,38.307,0,0,1-14.8-14.9,44.194,44.194,0,0,1-5.3-21.9V-96h22v54.8a27.858,27.858,0,0,0,2.3,11.9,16.537,16.537,0,0,0,6.8,7.5A21.028,21.028,0,0,0,178-19.2q9.6,0,14.7-5.7t5.1-16.3V-96h22v55.8a44.613,44.613,0,0,1-5.3,22.1A37.805,37.805,0,0,1,199.8-3.3,43.631,43.631,0,0,1,178,2ZM291.8,0V-55.4q0-9.6-6.1-15.8T270-77.4a22.93,22.93,0,0,0-11.4,2.8,19.943,19.943,0,0,0-7.8,7.8A22.93,22.93,0,0,0,248-55.4l-8.6-4.8a38.967,38.967,0,0,1,4.8-19.5,35.171,35.171,0,0,1,13.3-13.4A37.546,37.546,0,0,1,276.6-98a34.261,34.261,0,0,1,19.2,5.5A39.63,39.63,0,0,1,309-78.3a36.976,36.976,0,0,1,4.8,18.1V0ZM226,0V-96h22V0ZM333.6,0V-136h22V0Zm-23-76V-96h68v20Z" transform="translate(510 423)" fill="#edf7fd"/>
    <path id="Path_1" data-name="Path 1" d="M99.8,0,35-73l63.4-67h29.4l-70,72.8L58-79.8,129.8,0ZM15.2,0V-140h23V0ZM165.6,2a51.707,51.707,0,0,1-25.9-6.5,48.359,48.359,0,0,1-18.2-17.9A49.574,49.574,0,0,1,114.8-48a49.616,49.616,0,0,1,6.6-25.5,49.036,49.036,0,0,1,17.9-17.9A48.851,48.851,0,0,1,164.4-98a45.051,45.051,0,0,1,23.7,6.2,44.154,44.154,0,0,1,16.2,17,50.47,50.47,0,0,1,5.9,24.6,41.112,41.112,0,0,1-.3,4.9q-.3,2.5-.9,5.5H130.2v-18h67.4l-8.2,7.2A36.694,36.694,0,0,0,186-65.4a21.458,21.458,0,0,0-8.5-9.2A26.448,26.448,0,0,0,164-77.8a28.564,28.564,0,0,0-14.6,3.6,24.608,24.608,0,0,0-9.6,10.1,33.036,33.036,0,0,0-3.4,15.5A33.28,33.28,0,0,0,140-32.8a25.387,25.387,0,0,0,10.2,10.5,30.554,30.554,0,0,0,15.2,3.7,35.562,35.562,0,0,0,13.7-2.6,28.555,28.555,0,0,0,10.7-7.6l14,14.2a44.905,44.905,0,0,1-17,12.4A54.189,54.189,0,0,1,165.6,2Zm36.6,40q-10.2,0-16.7-3.2a38.213,38.213,0,0,1-11.9-9.4l14.2-14.2a15.465,15.465,0,0,0,5.4,4.7,16.443,16.443,0,0,0,7.4,1.5,13.93,13.93,0,0,0,9.3-3.3q3.9-3.3,3.9-9.7V-96h22V8.2q0,11-4.7,18.5a31.067,31.067,0,0,1-12.3,11.4A35.823,35.823,0,0,1,202.2,42Zm23-155.6a12.439,12.439,0,0,1-9.3-3.8,12.948,12.948,0,0,1-3.7-9.4,12.949,12.949,0,0,1,3.7-9.4,12.439,12.439,0,0,1,9.3-3.8,12.356,12.356,0,0,1,9.4,3.8,13.143,13.143,0,0,1,3.6,9.4,13.143,13.143,0,0,1-3.6,9.4A12.356,12.356,0,0,1,225.2-113.6ZM284.4,2a43.248,43.248,0,0,1-23.5-6.6,47.2,47.2,0,0,1-16.6-17.9,52.4,52.4,0,0,1-6.1-25.3,52.813,52.813,0,0,1,6.1-25.5,47.978,47.978,0,0,1,16.6-18A42.769,42.769,0,0,1,284.4-98a39.628,39.628,0,0,1,19.5,4.7,35.848,35.848,0,0,1,13.5,12.9,35.01,35.01,0,0,1,5,18.6v27.6a35.556,35.556,0,0,1-4.9,18.6A34.906,34.906,0,0,1,304-2.7,40.2,40.2,0,0,1,284.4,2ZM288-18.8q12.2,0,19.7-8.2t7.5-21a32.729,32.729,0,0,0-3.4-15.2,25.339,25.339,0,0,0-9.5-10.3A27.033,27.033,0,0,0,288-77.2a26.647,26.647,0,0,0-14.1,3.7,26.034,26.034,0,0,0-9.6,10.3A31.958,31.958,0,0,0,260.8-48a31.958,31.958,0,0,0,3.5,15.2,26.034,26.034,0,0,0,9.6,10.3A26.647,26.647,0,0,0,288-18.8ZM313.8,0V-25.8l3.8-23.4-3.8-23.2V-96h22V0Z" transform="translate(176 423)" fill="#edf7fd"/>
  </g>
</svg>
