<svg id="location" xmlns="http://www.w3.org/2000/svg" width="109" height="146" viewBox="0 0 109 146">
  <defs>
    <style>
      .cls-1, .cls-2 {
        fill: #531CB3;
      }

      .cls-1 {
        opacity: 0.8;
      }
    </style>
  </defs>
  <path id="Path_1" data-name="Path 1" class="cls-1" d="M54.5,0A54.628,54.628,0,0,0,0,54.75c0,22.073,7.655,28.24,48.9,88.306a6.793,6.793,0,0,0,11.195,0C101.345,82.99,109,76.823,109,54.75A54.628,54.628,0,0,0,54.5,0Zm0,77.562A22.813,22.813,0,1,1,77.208,54.749,22.782,22.782,0,0,1,54.5,77.562Z"/>
  <path id="Path_2" data-name="Path 2" class="cls-2" d="M171.488,157.741A13.744,13.744,0,1,1,157.744,144,13.744,13.744,0,0,1,171.488,157.741Z" transform="translate(-103.244 -102.974)"/>
</svg>
