<svg xmlns="http://www.w3.org/2000/svg" xmlns:xlink="http://www.w3.org/1999/xlink" width="1920" height="1080" viewBox="0 0 1920 1080">
  <defs>
    <clipPath id="clip-login-bg">
      <rect width="1920" height="1080"/>
    </clipPath>
  </defs>
  <g id="login-bg" clip-path="url(#clip-login-bg)">
    <rect width="1920" height="1080" fill="#12182b"/>
    <g id="hpuse_3" data-name="hpuse 3" transform="translate(0 103)">
      <path id="Path_3" data-name="Path 3" d="M177.108,940.279l-3.295-.742c36.738-163.379,129.064-311.741,259.97-417.76A749.955,749.955,0,0,1,1636.368,937.543l-3.291.749C1555.306,596.83,1256.041,358.35,905.316,358.35,559.186,358.35,252.932,603.085,177.108,940.279Z" transform="translate(66.504 -78.033)" fill="#303b73"/>
      <circle id="Ellipse_1" data-name="Ellipse 1" cx="91.72" cy="91.72" r="91.72" transform="translate(1427.45 279.62)" fill="#303b73"/>
      <rect id="Rectangle_1" data-name="Rectangle 1" width="3.377" height="133.404" transform="translate(1480.95 738.038)" fill="#303b73"/>
      <circle id="Ellipse_2" data-name="Ellipse 2" cx="52.767" cy="52.767" r="52.767" transform="translate(793.286 367.272)" fill="#303b73" opacity="0.4"/>
      <circle id="Ellipse_3" data-name="Ellipse 3" cx="37.016" cy="37.016" r="37.016" transform="translate(711.379 408.225)" fill="#6271bc" opacity="0.4"/>
      <circle id="Ellipse_4" data-name="Ellipse 4" cx="37.016" cy="37.016" r="37.016" transform="translate(314.545 514.61)" fill="#6271bc" opacity="0.4"/>
      <circle id="Ellipse_5" data-name="Ellipse 5" cx="52.767" cy="52.767" r="52.767" transform="translate(1393.248 362.931)" fill="#242d56" opacity="0.4"/>
      <path id="Path_6" data-name="Path 6" d="M88.483,706.877C91.343,717.451,101.141,724,101.141,724s5.16-10.6,2.3-21.169-12.658-17.123-12.658-17.123S85.622,696.3,88.483,706.877Z" transform="translate(7.147 149.73)" fill="#6271bc"/>
      <path id="Path_7" data-name="Path 7" d="M98.62,700.276c7.849,7.641,8.808,19.387,8.808,19.387s-11.767-.643-19.617-8.283S79,691.993,79,691.993,90.77,692.636,98.62,700.276Z" transform="translate(1.213 154.058)" fill="#43519d"/>
      <path id="Path_8" data-name="Path 8" d="M700.483,706.877C703.344,717.451,713.142,724,713.142,724s5.16-10.6,2.3-21.169-12.658-17.123-12.658-17.123S697.623,696.3,700.483,706.877Z" transform="translate(428.603 149.73)" fill="#6271bc"/>
      <path id="Path_9" data-name="Path 9" d="M710.62,700.276c7.849,7.641,8.808,19.387,8.808,19.387s-11.767-.643-19.617-8.283S691,691.993,691,691.993,702.769,692.636,710.62,700.276Z" transform="translate(422.67 154.058)" fill="#43519d"/>
      <path id="Path_10" data-name="Path 10" d="M70.986,487.744,64,476.1l65.206-55.891H296.879v16.3l-60.548,65.207L166.466,515.69Z" transform="translate(44.074 289.379)" fill="#43519d"/>
      <path id="Path_11" data-name="Path 11" d="M262.111,454.492V418.056H240.159v11.49l-6.91-7.852-55.891,55.891-9.316,9.315L156.4,533.476l20.96,51.232H284.481V479.913Z" transform="translate(107.704 287.896)" fill="#303b73"/>
      <rect id="Rectangle_2" data-name="Rectangle 2" width="176.988" height="107.124" transform="translate(108.074 765.48)" fill="#242d56"/>
      <rect id="Rectangle_3" data-name="Rectangle 3" width="37.26" height="32.603" transform="translate(223.348 799.247)" fill="#6271bc"/>
      <rect id="Rectangle_4" data-name="Rectangle 4" width="32.603" height="74.521" transform="translate(175.608 798.083)" fill="#6271bc"/>
      <path id="Path_12" data-name="Path 12" d="M87.626,484.258V472.615H73.654v11.643H87.626Z" transform="translate(50.722 325.468)" fill="#6271bc"/>
      <path id="Path_13" data-name="Path 13" d="M86.461,485.026H73.654v11.645H87.626V485.026Z" transform="translate(50.722 334.015)" fill="#6271bc"/>
      <rect id="Rectangle_5" data-name="Rectangle 5" width="13.973" height="11.644" transform="translate(147.663 798.083)" fill="#6271bc"/>
      <rect id="Rectangle_6" data-name="Rectangle 6" width="13.973" height="11.644" transform="translate(147.663 819.041)" fill="#6271bc"/>
      <path id="Path_14" data-name="Path 14" d="M204.159,484.949V473.3H190.185v11.645h13.974Z" transform="translate(130.972 325.943)" fill="#6271bc"/>
      <path id="Path_15" data-name="Path 15" d="M202.993,485.716H190.185v11.643h13.974V485.716Z" transform="translate(130.972 334.49)" fill="#6271bc"/>
      <rect id="Rectangle_7" data-name="Rectangle 7" width="13.973" height="11.644" transform="translate(344.445 799.247)" fill="#6271bc"/>
      <rect id="Rectangle_8" data-name="Rectangle 8" width="13.973" height="11.644" transform="translate(344.445 820.206)" fill="#6271bc"/>
      <path id="Path_16" data-name="Path 16" d="M469.986,487.744,463,476.1l65.206-55.891H695.879v16.3l-60.548,65.207L565.466,515.69Z" transform="translate(318.847 289.379)" fill="#43519d"/>
      <path id="Path_17" data-name="Path 17" d="M661.111,454.492V418.056H639.159v11.49l-6.91-7.852-55.891,55.891-9.316,9.315L555.4,533.476l20.96,51.232H683.481V479.913Z" transform="translate(382.477 287.896)" fill="#303b73"/>
      <rect id="Rectangle_9" data-name="Rectangle 9" width="176.988" height="107.124" transform="translate(781.847 765.48)" fill="#242d56"/>
      <rect id="Rectangle_10" data-name="Rectangle 10" width="37.26" height="32.603" transform="translate(897.121 799.247)" fill="#6271bc"/>
      <rect id="Rectangle_11" data-name="Rectangle 11" width="32.603" height="74.521" transform="translate(849.381 798.083)" fill="#6271bc"/>
      <path id="Path_18" data-name="Path 18" d="M486.626,484.258V472.615H472.654v11.643h13.972Z" transform="translate(325.495 325.468)" fill="#6271bc"/>
      <path id="Path_19" data-name="Path 19" d="M485.461,485.026H472.654v11.645h13.972V485.026Z" transform="translate(325.495 334.015)" fill="#6271bc"/>
      <rect id="Rectangle_12" data-name="Rectangle 12" width="13.973" height="11.644" transform="translate(821.436 798.083)" fill="#6271bc"/>
      <rect id="Rectangle_13" data-name="Rectangle 13" width="13.973" height="11.644" transform="translate(821.436 819.041)" fill="#6271bc"/>
      <path id="Path_20" data-name="Path 20" d="M603.159,484.949V473.3H589.185v11.645h13.974Z" transform="translate(405.745 325.943)" fill="#6271bc"/>
      <path id="Path_21" data-name="Path 21" d="M601.994,485.716H589.185v11.643h13.974V485.716Z" transform="translate(405.745 334.49)" fill="#6271bc"/>
      <rect id="Rectangle_14" data-name="Rectangle 14" width="13.973" height="11.644" transform="translate(1018.218 799.247)" fill="#6271bc"/>
      <rect id="Rectangle_15" data-name="Rectangle 15" width="13.973" height="11.644" transform="translate(1018.218 820.206)" fill="#6271bc"/>
      <path id="Path_22" data-name="Path 22" d="M285.263,371.9l-11.643-9.316,65.206-58.22H504.169V355.6L397.045,427.794Z" transform="translate(188.43 209.603)" fill="#43519d"/>
      <path id="Path_23" data-name="Path 23" d="M483.937,337.026v-31.5H461.985v7.714l-8.193-8.877-53.562,58.22L379.271,376.56l-32.5,237.43L395.783,663h113.9V364.915Z" transform="translate(238.807 209.603)" fill="#303b73"/>
      <rect id="Rectangle_16" data-name="Rectangle 16" width="176.988" height="300.413" transform="translate(462.05 572.19)" fill="#242d56"/>
      <rect id="Rectangle_17" data-name="Rectangle 17" width="32.603" height="73.357" transform="translate(530.747 799.247)" fill="#6271bc"/>
      <path id="Path_24" data-name="Path 24" d="M299.314,490.464V478.821H285.342v11.643h13.972Z" transform="translate(196.502 329.742)" fill="#6271bc"/>
      <path id="Path_25" data-name="Path 25" d="M298.151,491.232H285.342v11.645h13.972V491.232Z" transform="translate(196.502 338.289)" fill="#6271bc"/>
      <rect id="Rectangle_18" data-name="Rectangle 18" width="13.973" height="11.644" transform="translate(505.131 808.563)" fill="#6271bc"/>
      <rect id="Rectangle_19" data-name="Rectangle 19" width="13.973" height="11.644" transform="translate(505.131 829.521)" fill="#6271bc"/>
      <path id="Path_26" data-name="Path 26" d="M355.856,490.464V478.821H341.884v11.643h13.972Z" transform="translate(235.44 329.742)" fill="#6271bc"/>
      <path id="Path_27" data-name="Path 27" d="M354.692,491.232H341.884v11.645h13.972V491.232Z" transform="translate(235.44 338.289)" fill="#6271bc"/>
      <rect id="Rectangle_20" data-name="Rectangle 20" width="13.973" height="11.644" transform="translate(600.612 808.563)" fill="#6271bc"/>
      <rect id="Rectangle_21" data-name="Rectangle 21" width="13.973" height="11.644" transform="translate(600.612 829.521)" fill="#6271bc"/>
      <path id="Path_28" data-name="Path 28" d="M413.777,352.556V340.913H399.805v11.643h13.972Z" transform="translate(275.327 234.771)" fill="#6271bc"/>
      <path id="Path_29" data-name="Path 29" d="M412.613,353.325H399.805v11.643h13.972V353.325Z" transform="translate(275.327 243.319)" fill="#6271bc"/>
      <rect id="Rectangle_22" data-name="Rectangle 22" width="13.973" height="11.644" transform="translate(698.421 575.684)" fill="#6271bc"/>
      <rect id="Rectangle_23" data-name="Rectangle 23" width="13.973" height="11.644" transform="translate(698.421 596.644)" fill="#6271bc"/>
      <path id="Path_30" data-name="Path 30" d="M413.777,391.172V379.527H399.805v11.645h13.972Z" transform="translate(275.327 261.363)" fill="#6271bc"/>
      <path id="Path_31" data-name="Path 31" d="M412.613,391.939H399.805v11.643h13.972V391.939Z" transform="translate(275.327 269.91)" fill="#6271bc"/>
      <rect id="Rectangle_24" data-name="Rectangle 24" width="13.973" height="11.644" transform="translate(698.421 640.89)" fill="#6271bc"/>
      <rect id="Rectangle_25" data-name="Rectangle 25" width="13.973" height="11.644" transform="translate(698.421 661.849)" fill="#6271bc"/>
      <path id="Path_32" data-name="Path 32" d="M413.777,429.786V418.141H399.805v11.645h13.972Z" transform="translate(275.327 287.954)" fill="#6271bc"/>
      <path id="Path_33" data-name="Path 33" d="M412.613,430.553H399.805V442.2h13.972V430.553Z" transform="translate(275.327 296.502)" fill="#6271bc"/>
      <rect id="Rectangle_26" data-name="Rectangle 26" width="13.973" height="11.644" transform="translate(698.421 706.095)" fill="#6271bc"/>
      <rect id="Rectangle_27" data-name="Rectangle 27" width="13.973" height="11.644" transform="translate(698.421 727.055)" fill="#6271bc"/>
      <path id="Path_34" data-name="Path 34" d="M413.777,468.4V456.755H399.805V468.4h13.972Z" transform="translate(275.327 314.546)" fill="#6271bc"/>
      <path id="Path_35" data-name="Path 35" d="M412.613,469.167H399.805V480.81h13.972V469.167Z" transform="translate(275.327 323.094)" fill="#6271bc"/>
      <rect id="Rectangle_28" data-name="Rectangle 28" width="13.973" height="11.644" transform="translate(698.421 771.301)" fill="#6271bc"/>
      <rect id="Rectangle_29" data-name="Rectangle 29" width="13.973" height="11.644" transform="translate(698.421 792.261)" fill="#6271bc"/>
      <rect id="Rectangle_30" data-name="Rectangle 30" width="135.069" height="27.945" transform="translate(481.844 587.327)" fill="#6271bc"/>
      <rect id="Rectangle_31" data-name="Rectangle 31" width="135.069" height="27.945" transform="translate(481.844 643.218)" fill="#6271bc"/>
      <rect id="Rectangle_32" data-name="Rectangle 32" width="135.069" height="27.945" transform="translate(481.844 699.109)" fill="#6271bc"/>
      <rect id="Rectangle_33" data-name="Rectangle 33" width="135.069" height="27.945" transform="translate(481.844 755)" fill="#6271bc"/>
      <path id="Path_36" data-name="Path 36" d="M688.263,371.9l-11.643-9.316,65.205-58.22H907.168V355.6L800.045,427.794Z" transform="translate(465.957 209.603)" fill="#43519d"/>
      <path id="Path_37" data-name="Path 37" d="M886.937,337.026v-31.5H864.985v7.714l-8.193-8.877-53.562,58.22L782.271,376.56l-32.5,237.43L798.783,663h113.9V364.915Z" transform="translate(516.334 209.603)" fill="#303b73"/>
      <rect id="Rectangle_34" data-name="Rectangle 34" width="176.988" height="300.413" transform="translate(1142.577 572.19)" fill="#242d56"/>
      <rect id="Rectangle_35" data-name="Rectangle 35" width="32.603" height="73.357" transform="translate(1211.275 799.247)" fill="#6271bc"/>
      <path id="Path_38" data-name="Path 38" d="M702.314,490.464V478.821H688.342v11.643h13.972Z" transform="translate(474.03 329.742)" fill="#6271bc"/>
      <path id="Path_39" data-name="Path 39" d="M701.151,491.232H688.342v11.645h13.972V491.232Z" transform="translate(474.03 338.289)" fill="#6271bc"/>
      <rect id="Rectangle_36" data-name="Rectangle 36" width="13.973" height="11.644" transform="translate(1185.658 808.563)" fill="#6271bc"/>
      <rect id="Rectangle_37" data-name="Rectangle 37" width="13.973" height="11.644" transform="translate(1185.658 829.521)" fill="#6271bc"/>
      <path id="Path_40" data-name="Path 40" d="M758.856,490.464V478.821H744.884v11.643h13.972Z" transform="translate(512.968 329.742)" fill="#6271bc"/>
      <path id="Path_41" data-name="Path 41" d="M757.693,491.232H744.884v11.645h13.972V491.232Z" transform="translate(512.968 338.289)" fill="#6271bc"/>
      <rect id="Rectangle_38" data-name="Rectangle 38" width="13.973" height="11.644" transform="translate(1281.14 808.563)" fill="#6271bc"/>
      <rect id="Rectangle_39" data-name="Rectangle 39" width="13.973" height="11.644" transform="translate(1281.14 829.521)" fill="#6271bc"/>
      <path id="Path_42" data-name="Path 42" d="M816.777,352.556V340.913H802.8v11.643h13.972Z" transform="translate(552.855 234.771)" fill="#6271bc"/>
      <path id="Path_43" data-name="Path 43" d="M815.613,353.325H802.8v11.643h13.972V353.325Z" transform="translate(552.855 243.319)" fill="#6271bc"/>
      <rect id="Rectangle_40" data-name="Rectangle 40" width="13.973" height="11.644" transform="translate(1378.948 575.684)" fill="#6271bc"/>
      <rect id="Rectangle_41" data-name="Rectangle 41" width="13.973" height="11.644" transform="translate(1378.948 596.644)" fill="#6271bc"/>
      <path id="Path_44" data-name="Path 44" d="M816.777,391.172V379.527H802.8v11.645h13.972Z" transform="translate(552.855 261.363)" fill="#6271bc"/>
      <path id="Path_45" data-name="Path 45" d="M815.613,391.939H802.8v11.643h13.972V391.939Z" transform="translate(552.855 269.91)" fill="#6271bc"/>
      <rect id="Rectangle_42" data-name="Rectangle 42" width="13.973" height="11.644" transform="translate(1378.948 640.89)" fill="#6271bc"/>
      <rect id="Rectangle_43" data-name="Rectangle 43" width="13.973" height="11.644" transform="translate(1378.948 661.849)" fill="#6271bc"/>
      <path id="Path_46" data-name="Path 46" d="M816.777,429.786V418.141H802.8v11.645h13.972Z" transform="translate(552.855 287.954)" fill="#6271bc"/>
      <path id="Path_47" data-name="Path 47" d="M815.613,430.553H802.8V442.2h13.972V430.553Z" transform="translate(552.855 296.502)" fill="#6271bc"/>
      <rect id="Rectangle_44" data-name="Rectangle 44" width="13.973" height="11.644" transform="translate(1378.948 706.095)" fill="#6271bc"/>
      <rect id="Rectangle_45" data-name="Rectangle 45" width="13.973" height="11.644" transform="translate(1378.948 727.055)" fill="#6271bc"/>
      <path id="Path_48" data-name="Path 48" d="M816.777,468.4V456.755H802.8V468.4h13.972Z" transform="translate(552.855 314.546)" fill="#6271bc"/>
      <path id="Path_49" data-name="Path 49" d="M815.613,469.167H802.8V480.81h13.972V469.167Z" transform="translate(552.855 323.094)" fill="#6271bc"/>
      <rect id="Rectangle_46" data-name="Rectangle 46" width="13.973" height="11.644" transform="translate(1378.948 771.301)" fill="#6271bc"/>
      <rect id="Rectangle_47" data-name="Rectangle 47" width="13.973" height="11.644" transform="translate(1378.948 792.261)" fill="#6271bc"/>
      <rect id="Rectangle_48" data-name="Rectangle 48" width="135.069" height="27.945" transform="translate(1162.372 587.327)" fill="#6271bc"/>
      <rect id="Rectangle_49" data-name="Rectangle 49" width="135.069" height="27.945" transform="translate(1162.372 643.218)" fill="#6271bc"/>
      <rect id="Rectangle_50" data-name="Rectangle 50" width="135.069" height="27.945" transform="translate(1162.372 699.109)" fill="#6271bc"/>
      <rect id="Rectangle_51" data-name="Rectangle 51" width="135.069" height="27.945" transform="translate(1162.372 755)" fill="#6271bc"/>
      <path id="Path_50" data-name="Path 50" d="M909.263,371.9l-11.643-9.316,65.206-58.22h165.347V355.6l-107.127,72.193Z" transform="translate(618.15 209.603)" fill="#43519d"/>
      <path id="Path_51" data-name="Path 51" d="M1107.938,337.026v-31.5h-21.953v7.714l-8.19-8.877-53.564,58.22-20.96,13.974-32.5,237.43,49.01,49.01h113.907V364.915Z" transform="translate(668.527 209.603)" fill="#303b73"/>
      <rect id="Rectangle_52" data-name="Rectangle 52" width="176.988" height="300.413" transform="translate(1515.77 572.19)" fill="#242d56"/>
      <rect id="Rectangle_53" data-name="Rectangle 53" width="32.603" height="73.357" transform="translate(1584.468 799.247)" fill="#6271bc"/>
      <path id="Path_52" data-name="Path 52" d="M923.314,490.464V478.821H909.342v11.643h13.972Z" transform="translate(626.222 329.742)" fill="#6271bc"/>
      <path id="Path_53" data-name="Path 53" d="M922.15,491.232H909.342v11.645h13.972V491.232Z" transform="translate(626.222 338.289)" fill="#6271bc"/>
      <rect id="Rectangle_54" data-name="Rectangle 54" width="13.973" height="11.644" transform="translate(1558.851 808.563)" fill="#6271bc"/>
      <rect id="Rectangle_55" data-name="Rectangle 55" width="13.973" height="11.644" transform="translate(1558.851 829.521)" fill="#6271bc"/>
      <path id="Path_54" data-name="Path 54" d="M979.856,490.464V478.821H965.884v11.643h13.972Z" transform="translate(665.16 329.742)" fill="#6271bc"/>
      <path id="Path_55" data-name="Path 55" d="M978.692,491.232H965.884v11.645h13.972V491.232Z" transform="translate(665.16 338.289)" fill="#6271bc"/>
      <rect id="Rectangle_56" data-name="Rectangle 56" width="13.973" height="11.644" transform="translate(1654.332 808.563)" fill="#6271bc"/>
      <rect id="Rectangle_57" data-name="Rectangle 57" width="13.973" height="11.644" transform="translate(1654.332 829.521)" fill="#6271bc"/>
      <path id="Path_56" data-name="Path 56" d="M1037.782,352.556V340.913H1023.8v11.643h13.982Z" transform="translate(705.044 234.771)" fill="#6271bc"/>
      <path id="Path_57" data-name="Path 57" d="M1036.617,353.325H1023.8v11.643h13.982V353.325Z" transform="translate(705.044 243.319)" fill="#6271bc"/>
      <rect id="Rectangle_58" data-name="Rectangle 58" width="13.973" height="11.644" transform="translate(1752.148 575.684)" fill="#6271bc"/>
      <rect id="Rectangle_59" data-name="Rectangle 59" width="13.973" height="11.644" transform="translate(1752.148 596.644)" fill="#6271bc"/>
      <path id="Path_58" data-name="Path 58" d="M1037.782,391.172V379.527H1023.8v11.645h13.982Z" transform="translate(705.044 261.363)" fill="#6271bc"/>
      <path id="Path_59" data-name="Path 59" d="M1036.617,391.939H1023.8v11.643h13.982V391.939Z" transform="translate(705.044 269.91)" fill="#6271bc"/>
      <rect id="Rectangle_60" data-name="Rectangle 60" width="13.973" height="11.644" transform="translate(1752.148 640.89)" fill="#6271bc"/>
      <rect id="Rectangle_61" data-name="Rectangle 61" width="13.973" height="11.644" transform="translate(1752.148 661.849)" fill="#6271bc"/>
      <path id="Path_60" data-name="Path 60" d="M1037.782,429.786V418.141H1023.8v11.645h13.982Z" transform="translate(705.044 287.954)" fill="#6271bc"/>
      <path id="Path_61" data-name="Path 61" d="M1036.617,430.553H1023.8V442.2h13.982V430.553Z" transform="translate(705.044 296.502)" fill="#6271bc"/>
      <rect id="Rectangle_62" data-name="Rectangle 62" width="13.973" height="11.644" transform="translate(1752.148 706.095)" fill="#6271bc"/>
      <rect id="Rectangle_63" data-name="Rectangle 63" width="13.973" height="11.644" transform="translate(1752.148 727.055)" fill="#6271bc"/>
      <path id="Path_62" data-name="Path 62" d="M1037.782,468.4V456.755H1023.8V468.4h13.982Z" transform="translate(705.044 314.546)" fill="#6271bc"/>
      <path id="Path_63" data-name="Path 63" d="M1036.617,469.167H1023.8V480.81h13.982V469.167Z" transform="translate(705.044 323.094)" fill="#6271bc"/>
      <rect id="Rectangle_64" data-name="Rectangle 64" width="13.973" height="11.644" transform="translate(1752.148 771.301)" fill="#6271bc"/>
      <rect id="Rectangle_65" data-name="Rectangle 65" width="13.973" height="11.644" transform="translate(1752.148 792.261)" fill="#6271bc"/>
      <rect id="Rectangle_66" data-name="Rectangle 66" width="135.069" height="27.945" transform="translate(1535.564 587.327)" fill="#6271bc"/>
      <rect id="Rectangle_67" data-name="Rectangle 67" width="135.069" height="27.945" transform="translate(1535.564 643.218)" fill="#6271bc"/>
      <rect id="Rectangle_68" data-name="Rectangle 68" width="135.069" height="27.945" transform="translate(1535.564 699.109)" fill="#6271bc"/>
      <rect id="Rectangle_69" data-name="Rectangle 69" width="135.069" height="27.945" transform="translate(1535.564 755)" fill="#6271bc"/>
      <rect id="Rectangle_70" data-name="Rectangle 70" width="1920" height="3.377" transform="translate(0 871.442)" fill="#303b73"/>
      <rect id="Rectangle_71" data-name="Rectangle 71" width="3.377" height="133.404" transform="translate(425.541 738.038)" fill="#303b73"/>
      <path id="Path_64" data-name="Path 64" d="M330.869,672.479c.215,46.648-32.6,84.616-32.6,84.616s-33.168-37.664-33.383-84.312,32.6-84.616,32.6-84.616S330.653,625.832,330.869,672.479Z" transform="translate(129.219 82.559)" fill="#43519d"/>
      <rect id="Rectangle_72" data-name="Rectangle 72" width="3.377" height="133.404" transform="translate(763.272 738.038)" fill="#303b73"/>
      <path id="Path_65" data-name="Path 65" d="M530.869,672.479c.215,46.648-32.6,84.616-32.6,84.616s-33.168-37.664-33.383-84.312,32.6-84.616,32.6-84.616S530.653,625.832,530.869,672.479Z" transform="translate(266.95 82.559)" fill="#6271bc"/>
      <rect id="Rectangle_73" data-name="Rectangle 73" width="3.377" height="133.404" transform="translate(1437.045 738.038)" fill="#303b73"/>
      <path id="Path_68" data-name="Path 68" d="M929.869,672.479c.215,46.648-32.6,84.616-32.6,84.616s-33.168-37.664-33.383-84.312,32.6-84.616,32.6-84.616S929.653,625.832,929.869,672.479Z" transform="translate(574.256 82.559)" fill="#303b73"/>
      <path id="Path_66" data-name="Path 66" d="M929.869,672.479c.215,46.648-32.6,84.616-32.6,84.616s-33.168-37.664-33.383-84.312,32.6-84.616,32.6-84.616S929.653,625.832,929.869,672.479Z" transform="translate(541.722 82.559)" fill="#43519d"/>
      <ellipse id="Ellipse_6" data-name="Ellipse 6" cx="64.169" cy="14.438" rx="64.169" ry="14.438" transform="translate(927.916 261.657)" fill="#43519d"/>
      <path id="Path_67" data-name="Path 67" d="M722.6,265.273c0,41.035-74.3,157.045-74.3,157.045S574,306.308,574,265.273a74.3,74.3,0,1,1,148.6,0Z" transform="translate(342.095 -190.972)" fill="#303b73"/>
      <circle id="Ellipse_7" data-name="Ellipse 7" cx="42.216" cy="42.216" r="42.216" transform="translate(948.18 32.084)" fill="#6271bc"/>
    </g>
  </g>
</svg>
