<svg xmlns="http://www.w3.org/2000/svg" xmlns:xlink="http://www.w3.org/1999/xlink" width="1024" height="512" viewBox="0 0 1024 512">
  <defs>
    <clipPath id="clip-login-bg">
      <rect width="1024" height="512"/>
    </clipPath>
  </defs>
  <g id="login-bg" clip-path="url(#clip-login-bg)">
    <rect width="1024" height="512" fill="#333745"/>
    <g id="hpuse_3" data-name="hpuse 3" transform="translate(81.93 60.045)">
      <path id="Path_3" data-name="Path 3" d="M175.289,617.183l-1.476-.332a335.98,335.98,0,0,1,655.21-.893l-1.474.335C792.708,463.321,658.64,356.485,501.519,356.485,346.456,356.485,209.257,466.124,175.289,617.183Z" transform="translate(-66.153 -230.905)" fill="#f08f2d"/>
      <circle id="Ellipse_1" data-name="Ellipse 1" cx="41.089" cy="41.089" r="41.089" transform="translate(639.483 125.267)" fill="#f08f2d"/>
      <rect id="Rectangle_1" data-name="Rectangle 1" width="1.513" height="59.764" transform="translate(663.451 330.634)" fill="#3f3d56"/>
      <circle id="Ellipse_2" data-name="Ellipse 2" cx="23.639" cy="23.639" r="23.639" transform="translate(355.384 164.534)" fill="#f08f2d" opacity="0.4"/>
      <circle id="Ellipse_3" data-name="Ellipse 3" cx="16.583" cy="16.583" r="16.583" transform="translate(318.691 182.881)" fill="#e63462" opacity="0.4"/>
      <circle id="Ellipse_4" data-name="Ellipse 4" cx="16.583" cy="16.583" r="16.583" transform="translate(140.913 230.54)" fill="#e63462" opacity="0.4"/>
      <circle id="Ellipse_5" data-name="Ellipse 5" cx="23.639" cy="23.639" r="23.639" transform="translate(624.161 162.589)" fill="#fe5f55" opacity="0.4"/>
      <path id="Path_6" data-name="Path 6" d="M88.006,695.191c1.282,4.737,5.671,7.671,5.671,7.671s2.312-4.746,1.03-9.484-5.671-7.671-5.671-7.671S86.725,690.454,88.006,695.191Z" transform="translate(-45.165 -311.44)" fill="#3f3d56"/>
      <path id="Path_7" data-name="Path 7" d="M87.791,695.7c3.516,3.423,3.946,8.685,3.946,8.685s-5.272-.288-8.788-3.711S79,691.993,79,691.993,84.275,692.281,87.791,695.7Z" transform="translate(-43.067 -312.97)" fill="#f08f2d"/>
      <path id="Path_8" data-name="Path 8" d="M700.006,695.191c1.281,4.737,5.671,7.671,5.671,7.671s2.312-4.746,1.03-9.484-5.671-7.671-5.671-7.671S698.725,690.454,700.006,695.191Z" transform="translate(-194.187 -311.44)" fill="#3f3d56"/>
      <path id="Path_9" data-name="Path 9" d="M699.791,695.7c3.516,3.423,3.946,8.685,3.946,8.685s-5.272-.288-8.788-3.711S691,691.993,691,691.993,696.274,692.281,699.791,695.7Z" transform="translate(-192.089 -312.97)" fill="#f08f2d"/>
      <path id="Path_10" data-name="Path 10" d="M67.13,450.465,64,445.249,93.211,420.21h75.116v7.3L141.2,456.725l-31.3,6.259Z" transform="translate(-15.584 -102.321)" fill="#f08f2d"/>
      <path id="Path_11" data-name="Path 11" d="M203.756,434.379V418.056h-9.835V423.2l-3.1-3.518-25.039,25.039-4.174,4.173L156.4,469.763l9.39,22.951h47.99V445.767Z" transform="translate(-38.083 -101.796)" fill="#fe5f55"/>
      <rect id="Rectangle_2" data-name="Rectangle 2" width="79.289" height="47.99" transform="translate(48.416 342.928)" fill="#e63462"/>
      <rect id="Rectangle_3" data-name="Rectangle 3" width="16.692" height="14.606" transform="translate(100.058 358.055)" fill="#3f3d56"/>
      <rect id="Rectangle_4" data-name="Rectangle 4" width="14.606" height="33.385" transform="translate(78.671 357.533)" fill="#333745"/>
      <path id="Path_12" data-name="Path 12" d="M79.913,477.831v-5.216H73.654v5.216h6.259Z" transform="translate(-17.935 -115.082)" fill="#3f3d56"/>
      <path id="Path_13" data-name="Path 13" d="M79.391,485.026H73.654v5.217h6.259v-5.217Z" transform="translate(-17.935 -118.104)" fill="#3f3d56"/>
      <rect id="Rectangle_5" data-name="Rectangle 5" width="6.26" height="5.216" transform="translate(66.152 357.533)" fill="#3f3d56"/>
      <rect id="Rectangle_6" data-name="Rectangle 6" width="6.26" height="5.216" transform="translate(66.152 366.922)" fill="#3f3d56"/>
      <path id="Path_14" data-name="Path 14" d="M196.445,478.521V473.3h-6.26v5.217h6.26Z" transform="translate(-46.31 -115.249)" fill="#3f3d56"/>
      <path id="Path_15" data-name="Path 15" d="M195.923,485.716h-5.738v5.216h6.26v-5.216Z" transform="translate(-46.31 -118.272)" fill="#3f3d56"/>
      <rect id="Rectangle_7" data-name="Rectangle 7" width="6.26" height="5.216" transform="translate(154.308 358.055)" fill="#3f3d56"/>
      <rect id="Rectangle_8" data-name="Rectangle 8" width="6.26" height="5.216" transform="translate(154.308 367.444)" fill="#3f3d56"/>
      <path id="Path_16" data-name="Path 16" d="M466.13,450.465,463,445.249l29.211-25.039h75.116v7.3L540.2,456.725l-31.3,6.259Z" transform="translate(-112.74 -102.321)" fill="#f08f2d"/>
      <path id="Path_17" data-name="Path 17" d="M602.756,434.379V418.056h-9.835V423.2l-3.1-3.518-25.039,25.039-4.174,4.173L555.4,469.763l9.39,22.951h47.99V445.767Z" transform="translate(-135.239 -101.796)" fill="#fe5f55"/>
      <rect id="Rectangle_9" data-name="Rectangle 9" width="79.289" height="47.99" transform="translate(350.26 342.928)" fill="#e63462"/>
      <rect id="Rectangle_10" data-name="Rectangle 10" width="16.692" height="14.606" transform="translate(401.901 358.055)" fill="#3f3d56"/>
      <rect id="Rectangle_11" data-name="Rectangle 11" width="14.606" height="33.385" transform="translate(380.514 357.533)" fill="#333745"/>
      <path id="Path_18" data-name="Path 18" d="M478.913,477.831v-5.216h-6.259v5.216h6.259Z" transform="translate(-115.091 -115.082)" fill="#3f3d56"/>
      <path id="Path_19" data-name="Path 19" d="M478.391,485.026h-5.737v5.217h6.259v-5.217Z" transform="translate(-115.091 -118.104)" fill="#3f3d56"/>
      <rect id="Rectangle_12" data-name="Rectangle 12" width="6.26" height="5.216" transform="translate(367.995 357.533)" fill="#3f3d56"/>
      <rect id="Rectangle_13" data-name="Rectangle 13" width="6.26" height="5.216" transform="translate(367.995 366.922)" fill="#3f3d56"/>
      <path id="Path_20" data-name="Path 20" d="M595.445,478.521V473.3h-6.26v5.217h6.26Z" transform="translate(-143.466 -115.249)" fill="#3f3d56"/>
      <path id="Path_21" data-name="Path 21" d="M594.923,485.716h-5.738v5.216h6.26v-5.216Z" transform="translate(-143.466 -118.272)" fill="#3f3d56"/>
      <rect id="Rectangle_14" data-name="Rectangle 14" width="6.26" height="5.216" transform="translate(456.151 358.055)" fill="#3f3d56"/>
      <rect id="Rectangle_15" data-name="Rectangle 15" width="6.26" height="5.216" transform="translate(456.151 367.444)" fill="#3f3d56"/>
      <path id="Path_22" data-name="Path 22" d="M278.836,334.622l-5.216-4.174,29.211-26.082H376.9v22.952l-47.99,32.342Z" transform="translate(-66.626 -74.113)" fill="#f08f2d"/>
      <path id="Path_23" data-name="Path 23" d="M408.221,319V304.888h-9.835v3.456l-3.671-3.977-24,26.082-9.389,6.26L346.773,443.075l21.956,21.956h51.026V331.492Z" transform="translate(-84.439 -74.113)" fill="#fe5f55"/>
      <rect id="Rectangle_16" data-name="Rectangle 16" width="79.289" height="134.582" transform="translate(206.994 256.336)" fill="#e63462"/>
      <rect id="Rectangle_17" data-name="Rectangle 17" width="14.606" height="32.863" transform="translate(237.77 358.055)" fill="#333745"/>
      <path id="Path_24" data-name="Path 24" d="M291.6,484.037v-5.216h-6.259v5.216H291.6Z" transform="translate(-69.481 -116.593)" fill="#3f3d56"/>
      <path id="Path_25" data-name="Path 25" d="M291.08,491.232h-5.738v5.217H291.6v-5.217Z" transform="translate(-69.481 -119.615)" fill="#3f3d56"/>
      <rect id="Rectangle_18" data-name="Rectangle 18" width="6.26" height="5.216" transform="translate(226.293 362.228)" fill="#3f3d56"/>
      <rect id="Rectangle_19" data-name="Rectangle 19" width="6.26" height="5.216" transform="translate(226.293 371.617)" fill="#3f3d56"/>
      <path id="Path_26" data-name="Path 26" d="M348.143,484.037v-5.216h-6.259v5.216h6.259Z" transform="translate(-83.249 -116.593)" fill="#333745"/>
      <path id="Path_27" data-name="Path 27" d="M347.622,491.232h-5.738v5.217h6.259v-5.217Z" transform="translate(-83.249 -119.615)" fill="#3f3d56"/>
      <rect id="Rectangle_20" data-name="Rectangle 20" width="6.26" height="5.216" transform="translate(269.068 362.228)" fill="#3f3d56"/>
      <rect id="Rectangle_21" data-name="Rectangle 21" width="6.26" height="5.216" transform="translate(269.068 371.617)" fill="#3f3d56"/>
      <path id="Path_28" data-name="Path 28" d="M406.064,346.129v-5.216H399.8v5.216h6.259Z" transform="translate(-97.352 -83.012)" fill="#3f3d56"/>
      <path id="Path_29" data-name="Path 29" d="M405.543,353.325H399.8v5.216h6.259v-5.216Z" transform="translate(-97.352 -86.035)" fill="#3f3d56"/>
      <rect id="Rectangle_22" data-name="Rectangle 22" width="6.26" height="5.216" transform="translate(312.885 257.901)" fill="#3f3d56"/>
      <rect id="Rectangle_23" data-name="Rectangle 23" width="6.26" height="5.216" transform="translate(312.885 267.29)" fill="#3f3d56"/>
      <path id="Path_30" data-name="Path 30" d="M406.064,384.744v-5.217H399.8v5.217h6.259Z" transform="translate(-97.352 -92.415)" fill="#3f3d56"/>
      <path id="Path_31" data-name="Path 31" d="M405.543,391.939H399.8v5.216h6.259v-5.216Z" transform="translate(-97.352 -95.437)" fill="#3f3d56"/>
      <rect id="Rectangle_24" data-name="Rectangle 24" width="6.26" height="5.216" transform="translate(312.885 287.112)" fill="#3f3d56"/>
      <rect id="Rectangle_25" data-name="Rectangle 25" width="6.26" height="5.216" transform="translate(312.885 296.502)" fill="#3f3d56"/>
      <path id="Path_32" data-name="Path 32" d="M406.064,423.358v-5.217H399.8v5.217h6.259Z" transform="translate(-97.352 -101.817)" fill="#3f3d56"/>
      <path id="Path_33" data-name="Path 33" d="M405.543,430.553H399.8v5.216h6.259v-5.216Z" transform="translate(-97.352 -104.84)" fill="#3f3d56"/>
      <rect id="Rectangle_26" data-name="Rectangle 26" width="6.26" height="5.216" transform="translate(312.885 316.324)" fill="#3f3d56"/>
      <rect id="Rectangle_27" data-name="Rectangle 27" width="6.26" height="5.216" transform="translate(312.885 325.714)" fill="#3f3d56"/>
      <path id="Path_34" data-name="Path 34" d="M406.064,461.972v-5.217H399.8v5.217h6.259Z" transform="translate(-97.352 -111.22)" fill="#3f3d56"/>
      <path id="Path_35" data-name="Path 35" d="M405.543,469.167H399.8v5.216h6.259v-5.216Z" transform="translate(-97.352 -114.242)" fill="#3f3d56"/>
      <rect id="Rectangle_28" data-name="Rectangle 28" width="6.26" height="5.216" transform="translate(312.885 345.535)" fill="#3f3d56"/>
      <rect id="Rectangle_29" data-name="Rectangle 29" width="6.26" height="5.216" transform="translate(312.885 354.925)" fill="#3f3d56"/>
      <rect id="Rectangle_30" data-name="Rectangle 30" width="60.51" height="12.519" transform="translate(215.861 263.117)" fill="#333745"/>
      <rect id="Rectangle_31" data-name="Rectangle 31" width="60.51" height="12.519" transform="translate(215.861 288.156)" fill="#333745"/>
      <rect id="Rectangle_32" data-name="Rectangle 32" width="60.51" height="12.519" transform="translate(215.861 313.194)" fill="#333745"/>
      <rect id="Rectangle_33" data-name="Rectangle 33" width="60.51" height="12.519" transform="translate(215.861 338.233)" fill="#333745"/>
      <path id="Path_36" data-name="Path 36" d="M681.836,334.622l-5.216-4.174,29.211-26.082H779.9v22.952l-47.99,32.342Z" transform="translate(-164.757 -74.113)" fill="#f08f2d"/>
      <path id="Path_37" data-name="Path 37" d="M811.221,319V304.888h-9.834v3.456l-3.671-3.977-24,26.082-9.389,6.26L749.773,443.075l21.956,21.956h51.026V331.492Z" transform="translate(-182.57 -74.113)" fill="#fe5f55"/>
      <rect id="Rectangle_34" data-name="Rectangle 34" width="79.289" height="134.582" transform="translate(511.863 256.336)" fill="#e63462"/>
      <rect id="Rectangle_35" data-name="Rectangle 35" width="14.606" height="32.863" transform="translate(542.639 358.055)" fill="#333745"/>
      <path id="Path_38" data-name="Path 38" d="M694.6,484.037v-5.216h-6.259v5.216H694.6Z" transform="translate(-167.611 -116.593)" fill="#3f3d56"/>
      <path id="Path_39" data-name="Path 39" d="M694.08,491.232h-5.738v5.217H694.6v-5.217Z" transform="translate(-167.611 -119.615)" fill="#3f3d56"/>
      <rect id="Rectangle_36" data-name="Rectangle 36" width="6.26" height="5.216" transform="translate(531.163 362.228)" fill="#3f3d56"/>
      <rect id="Rectangle_37" data-name="Rectangle 37" width="6.26" height="5.216" transform="translate(531.163 371.617)" fill="#3f3d56"/>
      <path id="Path_40" data-name="Path 40" d="M751.143,484.037v-5.216h-6.259v5.216h6.259Z" transform="translate(-181.379 -116.593)" fill="#3f3d56"/>
      <path id="Path_41" data-name="Path 41" d="M750.622,491.232h-5.738v5.217h6.259v-5.217Z" transform="translate(-181.379 -119.615)" fill="#3f3d56"/>
      <rect id="Rectangle_38" data-name="Rectangle 38" width="6.26" height="5.216" transform="translate(573.938 362.228)" fill="#3f3d56"/>
      <rect id="Rectangle_39" data-name="Rectangle 39" width="6.26" height="5.216" transform="translate(573.938 371.617)" fill="#3f3d56"/>
      <path id="Path_42" data-name="Path 42" d="M809.064,346.129v-5.216H802.8v5.216h6.259Z" transform="translate(-195.483 -83.012)" fill="#3f3d56"/>
      <path id="Path_43" data-name="Path 43" d="M808.543,353.325H802.8v5.216h6.259v-5.216Z" transform="translate(-195.483 -86.035)" fill="#3f3d56"/>
      <rect id="Rectangle_40" data-name="Rectangle 40" width="6.26" height="5.216" transform="translate(617.755 257.901)" fill="#3f3d56"/>
      <rect id="Rectangle_41" data-name="Rectangle 41" width="6.26" height="5.216" transform="translate(617.755 267.29)" fill="#3f3d56"/>
      <path id="Path_44" data-name="Path 44" d="M809.064,384.744v-5.217H802.8v5.217h6.259Z" transform="translate(-195.483 -92.415)" fill="#3f3d56"/>
      <path id="Path_45" data-name="Path 45" d="M808.543,391.939H802.8v5.216h6.259v-5.216Z" transform="translate(-195.483 -95.437)" fill="#3f3d56"/>
      <rect id="Rectangle_42" data-name="Rectangle 42" width="6.26" height="5.216" transform="translate(617.755 287.112)" fill="#3f3d56"/>
      <rect id="Rectangle_43" data-name="Rectangle 43" width="6.26" height="5.216" transform="translate(617.755 296.502)" fill="#3f3d56"/>
      <path id="Path_46" data-name="Path 46" d="M809.064,423.358v-5.217H802.8v5.217h6.259Z" transform="translate(-195.483 -101.817)" fill="#3f3d56"/>
      <path id="Path_47" data-name="Path 47" d="M808.543,430.553H802.8v5.216h6.259v-5.216Z" transform="translate(-195.483 -104.84)" fill="#3f3d56"/>
      <rect id="Rectangle_44" data-name="Rectangle 44" width="6.26" height="5.216" transform="translate(617.755 316.324)" fill="#3f3d56"/>
      <rect id="Rectangle_45" data-name="Rectangle 45" width="6.26" height="5.216" transform="translate(617.755 325.714)" fill="#3f3d56"/>
      <path id="Path_48" data-name="Path 48" d="M809.064,461.972v-5.217H802.8v5.217h6.259Z" transform="translate(-195.483 -111.22)" fill="#3f3d56"/>
      <path id="Path_49" data-name="Path 49" d="M808.543,469.167H802.8v5.216h6.259v-5.216Z" transform="translate(-195.483 -114.242)" fill="#3f3d56"/>
      <rect id="Rectangle_46" data-name="Rectangle 46" width="6.26" height="5.216" transform="translate(617.755 345.535)" fill="#3f3d56"/>
      <rect id="Rectangle_47" data-name="Rectangle 47" width="6.26" height="5.216" transform="translate(617.755 354.925)" fill="#3f3d56"/>
      <rect id="Rectangle_48" data-name="Rectangle 48" width="60.51" height="12.519" transform="translate(520.731 263.117)" fill="#3f3d56"/>
      <rect id="Rectangle_49" data-name="Rectangle 49" width="60.51" height="12.519" transform="translate(520.731 288.156)" fill="#3f3d56"/>
      <rect id="Rectangle_50" data-name="Rectangle 50" width="60.51" height="12.519" transform="translate(520.731 313.194)" fill="#3f3d56"/>
      <rect id="Rectangle_51" data-name="Rectangle 51" width="60.51" height="12.519" transform="translate(520.731 338.233)" fill="#3f3d56"/>
      <path id="Path_50" data-name="Path 50" d="M902.836,334.622l-5.216-4.174,29.212-26.082H1000.9v22.952l-47.992,32.342Z" transform="translate(-218.57 -74.113)" fill="#f08f2d"/>
      <path id="Path_51" data-name="Path 51" d="M1032.221,319V304.888h-9.835v3.456l-3.669-3.977-24,26.082-9.39,6.26L970.773,443.075l21.956,21.956h51.029V331.492Z" transform="translate(-236.383 -74.113)" fill="#fe5f55"/>
      <rect id="Rectangle_52" data-name="Rectangle 52" width="79.289" height="134.582" transform="translate(679.05 256.336)" fill="#e63462"/>
      <rect id="Rectangle_53" data-name="Rectangle 53" width="14.606" height="32.863" transform="translate(709.826 358.055)" fill="#333745"/>
      <path id="Path_52" data-name="Path 52" d="M915.6,484.037v-5.216h-6.259v5.216H915.6Z" transform="translate(-221.425 -116.593)" fill="#3f3d56"/>
      <path id="Path_53" data-name="Path 53" d="M915.08,491.232h-5.738v5.217H915.6v-5.217Z" transform="translate(-221.425 -119.615)" fill="#3f3d56"/>
      <rect id="Rectangle_54" data-name="Rectangle 54" width="6.26" height="5.216" transform="translate(698.349 362.228)" fill="#3f3d56"/>
      <rect id="Rectangle_55" data-name="Rectangle 55" width="6.26" height="5.216" transform="translate(698.349 371.617)" fill="#3f3d56"/>
      <path id="Path_54" data-name="Path 54" d="M972.143,484.037v-5.216h-6.259v5.216h6.259Z" transform="translate(-235.193 -116.593)" fill="#3f3d56"/>
      <path id="Path_55" data-name="Path 55" d="M971.622,491.232h-5.738v5.217h6.259v-5.217Z" transform="translate(-235.193 -119.615)" fill="#3f3d56"/>
      <rect id="Rectangle_56" data-name="Rectangle 56" width="6.26" height="5.216" transform="translate(741.124 362.228)" fill="#3f3d56"/>
      <rect id="Rectangle_57" data-name="Rectangle 57" width="6.26" height="5.216" transform="translate(741.124 371.617)" fill="#3f3d56"/>
      <path id="Path_56" data-name="Path 56" d="M1030.064,346.129v-5.216H1023.8v5.216h6.264Z" transform="translate(-249.295 -83.012)" fill="#3f3d56"/>
      <path id="Path_57" data-name="Path 57" d="M1029.542,353.325H1023.8v5.216h6.264v-5.216Z" transform="translate(-249.295 -86.035)" fill="#3f3d56"/>
      <rect id="Rectangle_58" data-name="Rectangle 58" width="6.26" height="5.216" transform="translate(784.945 257.901)" fill="#3f3d56"/>
      <rect id="Rectangle_59" data-name="Rectangle 59" width="6.26" height="5.216" transform="translate(784.945 267.29)" fill="#3f3d56"/>
      <path id="Path_58" data-name="Path 58" d="M1030.064,384.744v-5.217H1023.8v5.217h6.264Z" transform="translate(-249.295 -92.415)" fill="#3f3d56"/>
      <path id="Path_59" data-name="Path 59" d="M1029.542,391.939H1023.8v5.216h6.264v-5.216Z" transform="translate(-249.295 -95.437)" fill="#3f3d56"/>
      <rect id="Rectangle_60" data-name="Rectangle 60" width="6.26" height="5.216" transform="translate(784.945 287.112)" fill="#3f3d56"/>
      <rect id="Rectangle_61" data-name="Rectangle 61" width="6.26" height="5.216" transform="translate(784.945 296.502)" fill="#3f3d56"/>
      <path id="Path_60" data-name="Path 60" d="M1030.064,423.358v-5.217H1023.8v5.217h6.264Z" transform="translate(-249.295 -101.817)" fill="#3f3d56"/>
      <path id="Path_61" data-name="Path 61" d="M1029.542,430.553H1023.8v5.216h6.264v-5.216Z" transform="translate(-249.295 -104.84)" fill="#3f3d56"/>
      <rect id="Rectangle_62" data-name="Rectangle 62" width="6.26" height="5.216" transform="translate(784.945 316.324)" fill="#3f3d56"/>
      <rect id="Rectangle_63" data-name="Rectangle 63" width="6.26" height="5.216" transform="translate(784.945 325.714)" fill="#3f3d56"/>
      <path id="Path_62" data-name="Path 62" d="M1030.064,461.972v-5.217H1023.8v5.217h6.264Z" transform="translate(-249.295 -111.22)" fill="#3f3d56"/>
      <path id="Path_63" data-name="Path 63" d="M1029.542,469.167H1023.8v5.216h6.264v-5.216Z" transform="translate(-249.295 -114.242)" fill="#3f3d56"/>
      <rect id="Rectangle_64" data-name="Rectangle 64" width="6.26" height="5.216" transform="translate(784.945 345.535)" fill="#3f3d56"/>
      <rect id="Rectangle_65" data-name="Rectangle 65" width="6.26" height="5.216" transform="translate(784.945 354.925)" fill="#3f3d56"/>
      <rect id="Rectangle_66" data-name="Rectangle 66" width="60.51" height="12.519" transform="translate(687.917 263.117)" fill="#3f3d56"/>
      <rect id="Rectangle_67" data-name="Rectangle 67" width="60.51" height="12.519" transform="translate(687.917 288.156)" fill="#3f3d56"/>
      <rect id="Rectangle_68" data-name="Rectangle 68" width="60.51" height="12.519" transform="translate(687.917 313.194)" fill="#3f3d56"/>
      <rect id="Rectangle_69" data-name="Rectangle 69" width="60.51" height="12.519" transform="translate(687.917 338.233)" fill="#3f3d56"/>
      <rect id="Rectangle_70" data-name="Rectangle 70" width="860.141" height="1.513" transform="translate(0 390.397)" fill="#3f3d56"/>
      <rect id="Rectangle_71" data-name="Rectangle 71" width="1.513" height="59.764" transform="translate(190.638 330.634)" fill="#3f3d56"/>
      <path id="Path_64" data-name="Path 64" d="M294.443,625.938c.1,20.9-14.606,37.907-14.606,37.907s-14.859-16.873-14.955-37.771,14.606-37.907,14.606-37.907S294.346,605.041,294.443,625.938Z" transform="translate(-88.328 -287.689)" fill="#f08f2d"/>
      <rect id="Rectangle_72" data-name="Rectangle 72" width="1.513" height="59.764" transform="translate(341.938 330.634)" fill="#3f3d56"/>
      <path id="Path_65" data-name="Path 65" d="M494.443,625.938c.1,20.9-14.606,37.907-14.606,37.907s-14.859-16.873-14.955-37.771,14.606-37.907,14.606-37.907S494.346,605.041,494.443,625.938Z" transform="translate(-137.028 -287.689)" fill="#f08f2d"/>
      <rect id="Rectangle_73" data-name="Rectangle 73" width="1.513" height="59.764" transform="translate(643.782 330.634)" fill="#3f3d56"/>
      <path id="Path_68" data-name="Path 68" d="M893.443,625.938c.1,20.9-14.606,37.907-14.606,37.907s-14.859-16.873-14.955-37.771,14.606-37.907,14.606-37.907S893.346,605.041,893.443,625.938Z" transform="translate(-219.61 -287.689)" fill="#e63462"/>
      <path id="Path_66" data-name="Path 66" d="M893.443,625.938c.1,20.9-14.606,37.907-14.606,37.907s-14.859-16.873-14.955-37.771,14.606-37.907,14.606-37.907S893.346,605.041,893.443,625.938Z" transform="translate(-234.185 -287.689)" fill="#f08f2d"/>
      <ellipse id="Ellipse_6" data-name="Ellipse 6" cx="28.747" cy="6.468" rx="28.747" ry="6.468" transform="translate(415.697 117.22)" fill="#f08f2d"/>
      <path id="Path_67" data-name="Path 67" d="M640.572,224.258c0,18.383-33.286,70.354-33.286,70.354S574,242.641,574,224.258a33.286,33.286,0,1,1,66.572,0Z" transform="translate(-163.599 -190.972)" fill="#f08f2d"/>
      <circle id="Ellipse_7" data-name="Ellipse 7" cx="18.913" cy="18.913" r="18.913" transform="translate(424.775 14.374)" fill="#333745"/>
    </g>
  </g>
</svg>
